<svg xmlns="http://www.w3.org/2000/svg" xmlns:xlink="http://www.w3.org/1999/xlink" viewBox="0 0 611.06 498.82"><defs><style>.cls-1{fill:url(#GradientFill_1);}.cls-2{fill:url(#GradientFill_2);}.cls-3{fill:url(#GradientFill_3);}.cls-4{fill:url(#GradientFill_4);}.cls-5{fill:url(#GradientFill_5);}.cls-6{fill:url(#GradientFill_6);}.cls-7{fill:url(#GradientFill_7);}.cls-8{fill:url(#GradientFill_8);}.cls-9{fill:url(#GradientFill_1-2);}.cls-10{fill:url(#GradientFill_9);}.cls-11{fill:url(#GradientFill_10);}.cls-12{fill:url(#GradientFill_11);}.cls-13{fill:url(#GradientFill_12);}.cls-14{fill:url(#GradientFill_13);}.cls-15{fill:url(#GradientFill_2-2);}.cls-16{fill:url(#GradientFill_3-2);}.cls-17{fill:url(#GradientFill_4-2);}.cls-18{fill:url(#GradientFill_1-3);}.cls-19{fill:url(#GradientFill_7-2);}.cls-20{fill:url(#GradientFill_14);}.cls-21{fill:url(#GradientFill_15);}.cls-22{fill:url(#GradientFill_16);}.cls-23{fill:url(#GradientFill_17);}.cls-24{fill:url(#GradientFill_18);}.cls-25{fill:url(#GradientFill_19);}.cls-26{fill:url(#GradientFill_20);}.cls-27{fill:url(#GradientFill_21);}.cls-28{fill:url(#GradientFill_22);}.cls-29{fill:url(#GradientFill_23);}.cls-30{fill:url(#GradientFill_24);}.cls-31{fill:url(#GradientFill_1-4);}.cls-32{fill:url(#GradientFill_25);}.cls-33{fill:url(#GradientFill_26);}.cls-34{fill:url(#GradientFill_27);}.cls-35{fill:url(#GradientFill_28);}.cls-36{fill:url(#GradientFill_29);}.cls-37{fill:url(#GradientFill_30);}.cls-38{fill:url(#GradientFill_31);}.cls-39{fill:url(#GradientFill_32);}.cls-40{fill:url(#GradientFill_33);}.cls-41{fill:url(#GradientFill_34);}.cls-42{fill:url(#GradientFill_35);}.cls-43{fill:url(#GradientFill_36);}.cls-44{fill:url(#GradientFill_37);}.cls-45{fill:url(#GradientFill_38);}.cls-46{fill:url(#GradientFill_39);}.cls-47{fill:url(#GradientFill_40);}.cls-48{fill:url(#GradientFill_41);}.cls-49{fill:url(#GradientFill_42);}.cls-50{fill:url(#GradientFill_43);}.cls-51{fill:url(#GradientFill_44);}.cls-52{fill:url(#GradientFill_45);}.cls-53{fill:url(#GradientFill_46);}.cls-54{fill:url(#GradientFill_47);}.cls-55{fill:url(#GradientFill_48);}.cls-56{fill:url(#GradientFill_8-2);}.cls-57{fill:url(#GradientFill_49);}.cls-58{fill:url(#GradientFill_50);}.cls-59{fill:url(#GradientFill_51);}.cls-60{fill:url(#GradientFill_52);}.cls-61{fill:url(#GradientFill_53);}.cls-62{fill:url(#GradientFill_54);}.cls-63{fill:url(#GradientFill_55);}.cls-64{fill:url(#GradientFill_56);}.cls-65{fill:url(#GradientFill_57);}.cls-66{fill:url(#GradientFill_58);}.cls-67{fill:url(#GradientFill_59);}.cls-68{fill:url(#GradientFill_60);}.cls-69{fill:url(#GradientFill_61);}.cls-70{fill:url(#GradientFill_62);}.cls-71{fill:url(#GradientFill_63);}.cls-72{fill:url(#GradientFill_6-2);}.cls-73{fill:url(#GradientFill_64);}.cls-74{fill:url(#GradientFill_65);}.cls-75{fill:url(#GradientFill_66);}.cls-76{fill:url(#GradientFill_11-2);}.cls-77{fill:url(#GradientFill_4-3);}.cls-78{fill:url(#GradientFill_67);}.cls-79{fill:url(#GradientFill_68);}.cls-80{fill:url(#GradientFill_69);}.cls-81{fill:url(#GradientFill_70);}.cls-82{fill:url(#GradientFill_8-3);}.cls-83{fill:url(#GradientFill_5-2);}.cls-84{fill:url(#GradientFill_71);}.cls-85{fill:url(#GradientFill_72);}.cls-86{fill:url(#GradientFill_47-2);}.cls-87{fill:url(#GradientFill_73);}.cls-88{fill:url(#GradientFill_5-3);}.cls-89{fill:url(#GradientFill_6-3);}.cls-90{fill:url(#GradientFill_3-3);}.cls-91{fill:url(#GradientFill_7-3);}.cls-92{fill:url(#GradientFill_59-2);}.cls-93{fill:url(#GradientFill_8-4);}.cls-94{fill:url(#GradientFill_47-3);}.cls-95{fill:url(#GradientFill_47-4);}</style><linearGradient id="GradientFill_1" x1="293.92" y1="469.6" x2="317.13" y2="446.39" gradientUnits="userSpaceOnUse"><stop offset="0" stop-color="#005a91"/><stop offset="1" stop-color="#084c7f"/></linearGradient><linearGradient id="GradientFill_2" x1="141.08" y1="388.04" x2="405.26" y2="559.6" gradientUnits="userSpaceOnUse"><stop offset="0" stop-color="#1b4381"/><stop offset="1" stop-color="#277aab"/></linearGradient><linearGradient id="GradientFill_3" x1="297.82" y1="416.38" x2="384.96" y2="573.57" gradientUnits="userSpaceOnUse"><stop offset="0" stop-color="#0064a3"/><stop offset="1" stop-color="#1065a7"/></linearGradient><linearGradient id="GradientFill_4" x1="313.57" y1="432.76" x2="496.5" y2="643.2" gradientUnits="userSpaceOnUse"><stop offset="0" stop-color="#00599b"/><stop offset="1" stop-color="#001a37"/></linearGradient><linearGradient id="GradientFill_5" x1="286.71" y1="421.75" x2="499.58" y2="544.65" gradientUnits="userSpaceOnUse"><stop offset="0" stop-color="#262e6d"/><stop offset="1" stop-color="#0d4775"/></linearGradient><linearGradient id="GradientFill_6" x1="132.01" y1="322.35" x2="436.27" y2="596.31" gradientUnits="userSpaceOnUse"><stop offset="0" stop-color="#005289"/><stop offset="1" stop-color="#00609f"/></linearGradient><linearGradient id="GradientFill_7" x1="89.71" y1="241.07" x2="385.66" y2="547.54" gradientUnits="userSpaceOnUse"><stop offset="0" stop-color="#006db1"/><stop offset="1" stop-color="#163d6e"/></linearGradient><linearGradient id="GradientFill_8" x1="318.4" y1="385.48" x2="414.26" y2="551.52" gradientUnits="userSpaceOnUse"><stop offset="0" stop-color="#0077bc"/><stop offset="1" stop-color="#005285"/></linearGradient><linearGradient id="GradientFill_1-2" x1="202.48" y1="592.32" x2="408.56" y2="386.25" xlink:href="#GradientFill_1"/><linearGradient id="GradientFill_9" x1="327.18" y1="381.19" x2="569.06" y2="598.97" gradientUnits="userSpaceOnUse"><stop offset="0" stop-color="#001c3f"/><stop offset="1" stop-color="#1b4075"/></linearGradient><linearGradient id="GradientFill_10" x1="-24.68" y1="326.1" x2="319.53" y2="595.02" gradientUnits="userSpaceOnUse"><stop offset="0" stop-color="#001b36"/><stop offset="1" stop-color="#072a51"/></linearGradient><linearGradient id="GradientFill_11" x1="-596.59" y1="-290.42" x2="540.89" y2="847.06" gradientUnits="userSpaceOnUse"><stop offset="0" stop-color="#0b2c56"/><stop offset="1" stop-color="#144579"/></linearGradient><linearGradient id="GradientFill_12" x1="129.07" y1="344.98" x2="257.65" y2="576.97" gradientUnits="userSpaceOnUse"><stop offset="0" stop-color="#001c3b"/><stop offset="1" stop-color="#072a51"/></linearGradient><linearGradient id="GradientFill_13" x1="157.39" y1="412.63" x2="439.39" y2="748.7" gradientUnits="userSpaceOnUse"><stop offset="0" stop-color="#102f5b"/><stop offset="1" stop-color="#0060a3"/></linearGradient><linearGradient id="GradientFill_2-2" x1="99.47" y1="365.3" x2="480.33" y2="612.63" xlink:href="#GradientFill_2"/><linearGradient id="GradientFill_3-2" x1="297.36" y1="416.26" x2="386.07" y2="576.3" xlink:href="#GradientFill_3"/><linearGradient id="GradientFill_4-2" x1="198.62" y1="259.31" x2="693.13" y2="828.18" xlink:href="#GradientFill_4"/><linearGradient id="GradientFill_1-3" x1="292.22" y1="231.44" x2="318.84" y2="204.81" xlink:href="#GradientFill_1"/><linearGradient id="GradientFill_7-2" x1="408.72" y1="289.84" x2="929.14" y2="955.96" xlink:href="#GradientFill_7"/><linearGradient id="GradientFill_14" x1="32.13" y1="222.56" x2="145.54" y2="378.66" gradientUnits="userSpaceOnUse"><stop offset="0" stop-color="#0f2d59"/><stop offset="1" stop-color="#163d6e"/></linearGradient><linearGradient id="GradientFill_15" x1="278.9" y1="-192.89" x2="1025.31" y2="255.6" gradientUnits="userSpaceOnUse"><stop offset="0" stop-color="#070c16"/><stop offset="1" stop-color="#070812"/></linearGradient><linearGradient id="GradientFill_16" x1="128.29" y1="-41.79" x2="272.47" y2="136.25" gradientUnits="userSpaceOnUse"><stop offset="0" stop-color="#0a3057"/><stop offset="1" stop-color="#0e426d"/></linearGradient><linearGradient id="GradientFill_17" x1="-132.59" y1="-572.47" x2="396.99" y2="275.03" gradientUnits="userSpaceOnUse"><stop offset="0" stop-color="#03284c"/><stop offset="1" stop-color="#005289"/></linearGradient><linearGradient id="GradientFill_18" x1="145.68" y1="-54.36" x2="312.14" y2="245.95" gradientUnits="userSpaceOnUse"><stop offset="0" stop-color="#044d80"/><stop offset="1" stop-color="#081e4e"/></linearGradient><linearGradient id="GradientFill_19" x1="217.4" y1="-67.12" x2="343.2" y2="190.81" gradientUnits="userSpaceOnUse"><stop offset="0" stop-color="#005ba1"/><stop offset="1" stop-color="#084c7f"/></linearGradient><linearGradient id="GradientFill_20" x1="437.36" y1="221.09" x2="626.76" y2="536.3" gradientUnits="userSpaceOnUse"><stop offset="0" stop-color="#0068a7"/><stop offset="1" stop-color="#10345e"/></linearGradient><linearGradient id="GradientFill_21" x1="443.33" y1="265.43" x2="553.43" y2="392.1" gradientUnits="userSpaceOnUse"><stop offset="0" stop-color="#114271"/><stop offset="1" stop-color="#0f3e68"/></linearGradient><linearGradient id="GradientFill_22" x1="434.69" y1="192.49" x2="607.18" y2="322.47" gradientUnits="userSpaceOnUse"><stop offset="0" stop-color="#0f4573"/><stop offset="1" stop-color="#0e2e58"/></linearGradient><linearGradient id="GradientFill_23" x1="419.14" y1="231.51" x2="673.85" y2="334.42" gradientUnits="userSpaceOnUse"><stop offset="0" stop-color="#0e426d"/><stop offset="1" stop-color="#002348"/></linearGradient><linearGradient id="GradientFill_24" x1="418.77" y1="91.3" x2="548.83" y2="370.22" gradientUnits="userSpaceOnUse"><stop offset="0" stop-color="#005080"/><stop offset="1" stop-color="#094b7b"/></linearGradient><linearGradient id="GradientFill_1-4" x1="390.29" y1="49.15" x2="475.84" y2="175.99" xlink:href="#GradientFill_1"/><linearGradient id="GradientFill_25" x1="343.86" y1="-40.73" x2="622.53" y2="101.26" gradientUnits="userSpaceOnUse"><stop offset="0" stop-color="#0e325b"/><stop offset="1" stop-color="#164376"/></linearGradient><linearGradient id="GradientFill_26" x1="20.82" y1="295.79" x2="106.6" y2="508.09" gradientUnits="userSpaceOnUse"><stop offset="0" stop-color="#04162c"/><stop offset="1" stop-color="#001f44"/></linearGradient><linearGradient id="GradientFill_27" x1="424.65" y1="323.55" x2="524.73" y2="490.11" gradientUnits="userSpaceOnUse"><stop offset="0" stop-color="#005ba0"/><stop offset="1" stop-color="#005eac"/></linearGradient><linearGradient id="GradientFill_28" x1="436.12" y1="309.84" x2="552.12" y2="510.76" gradientUnits="userSpaceOnUse"><stop offset="0" stop-color="#005c9c"/><stop offset="1" stop-color="#152a60"/></linearGradient><linearGradient id="GradientFill_29" x1="-396.32" y1="-207.13" x2="207.47" y2="440.36" gradientUnits="userSpaceOnUse"><stop offset="0" stop-color="#091329"/><stop offset="1" stop-color="#081124"/></linearGradient><linearGradient id="GradientFill_30" x1="-202.75" y1="-241.58" x2="375.46" y2="279.04" gradientUnits="userSpaceOnUse"><stop offset="0" stop-color="#0a1323"/><stop offset="1" stop-color="#051529"/></linearGradient><linearGradient id="GradientFill_31" x1="16.52" y1="-66.59" x2="211.21" y2="108.71" gradientUnits="userSpaceOnUse"><stop offset="0" stop-color="#03254a"/><stop offset="1" stop-color="#002649"/></linearGradient><linearGradient id="GradientFill_32" x1="-179.01" y1="-188.22" x2="152.42" y2="251.6" gradientUnits="userSpaceOnUse"><stop offset="0" stop-color="#05152c"/><stop offset="1" stop-color="#090f1a"/></linearGradient><linearGradient id="GradientFill_33" x1="-93.68" y1="-97.62" x2="72.69" y2="80.78" gradientUnits="userSpaceOnUse"><stop offset="0" stop-color="#06162e"/><stop offset="1" stop-color="#153262"/></linearGradient><linearGradient id="GradientFill_34" x1="-61.29" y1="-65.37" x2="170" y2="90.64" gradientUnits="userSpaceOnUse"><stop offset="0" stop-color="#0b4c83"/><stop offset="1" stop-color="#070d18"/></linearGradient><linearGradient id="GradientFill_35" x1="519.89" y1="143.19" x2="637.9" y2="245.77" gradientUnits="userSpaceOnUse"><stop offset="0" stop-color="#0c2f58"/><stop offset="1" stop-color="#05152c"/></linearGradient><linearGradient id="GradientFill_36" x1="258.17" y1="-91.55" x2="2683.46" y2="2170.06" gradientUnits="userSpaceOnUse"><stop offset="0" stop-color="#0a1223"/><stop offset="1" stop-color="#090d18"/></linearGradient><linearGradient id="GradientFill_37" x1="504.66" y1="261.5" x2="728.29" y2="365.78" gradientUnits="userSpaceOnUse"><stop offset="0" stop-color="#001b36"/><stop offset="1" stop-color="#091120"/></linearGradient><linearGradient id="GradientFill_38" x1="558.71" y1="227.72" x2="753.62" y2="380.01" gradientUnits="userSpaceOnUse"><stop offset="0" stop-color="#090f1e"/><stop offset="1" stop-color="#070812"/></linearGradient><linearGradient id="GradientFill_39" x1="402.78" y1="37.08" x2="570.62" y2="210.88" gradientUnits="userSpaceOnUse"><stop offset="0" stop-color="#094978"/><stop offset="1" stop-color="#0e325b"/></linearGradient><linearGradient id="GradientFill_40" x1="281.13" y1="-47.37" x2="661.37" y2="271.69" gradientUnits="userSpaceOnUse"><stop offset="0" stop-color="#064a78"/><stop offset="1" stop-color="#0e355f"/></linearGradient><linearGradient id="GradientFill_41" x1="426.43" y1="-56.38" x2="581.46" y2="135.07" gradientUnits="userSpaceOnUse"><stop offset="0" stop-color="#0f335e"/><stop offset="1" stop-color="#001a35"/></linearGradient><linearGradient id="GradientFill_42" x1="478.44" y1="106.78" x2="617.79" y2="208.02" gradientUnits="userSpaceOnUse"><stop offset="0" stop-color="#0e325b"/><stop offset="1" stop-color="#031b33"/></linearGradient><linearGradient id="GradientFill_43" x1="504.66" y1="-32.56" x2="676.69" y2="172.46" gradientUnits="userSpaceOnUse"><stop offset="0" stop-color="#09101c"/><stop offset="1" stop-color="#091120"/></linearGradient><linearGradient id="GradientFill_44" x1="526.48" y1="-2.13" x2="691" y2="241.78" gradientUnits="userSpaceOnUse"><stop offset="0" stop-color="#081221"/><stop offset="1" stop-color="#091122"/></linearGradient><linearGradient id="GradientFill_45" x1="221.21" y1="-36.11" x2="360.87" y2="263.38" gradientUnits="userSpaceOnUse"><stop offset="0" stop-color="#005081"/><stop offset="1" stop-color="#183065"/></linearGradient><linearGradient id="GradientFill_46" x1="195.08" y1="-137.75" x2="374.69" y2="149.69" gradientUnits="userSpaceOnUse"><stop offset="0" stop-color="#114270"/><stop offset="1" stop-color="#005f99"/></linearGradient><linearGradient id="GradientFill_47" x1="87.18" y1="-102.83" x2="536.87" y2="379.4" gradientUnits="userSpaceOnUse"><stop offset="0" stop-color="#252563"/><stop offset="1" stop-color="#006ba8"/></linearGradient><linearGradient id="GradientFill_48" x1="299.41" y1="-81.78" x2="405.71" y2="156.98" gradientUnits="userSpaceOnUse"><stop offset="0" stop-color="#00609f"/><stop offset="1" stop-color="#0070b9"/></linearGradient><linearGradient id="GradientFill_8-2" x1="316.08" y1="4.01" x2="451.35" y2="91.85" xlink:href="#GradientFill_8"/><linearGradient id="GradientFill_49" x1="322.26" y1="49.02" x2="494.4" y2="118.57" gradientUnits="userSpaceOnUse"><stop offset="0" stop-color="#005a8f"/><stop offset="1" stop-color="#005285"/></linearGradient><linearGradient id="GradientFill_50" x1="-24.39" y1="124.18" x2="128.31" y2="256.93" gradientUnits="userSpaceOnUse"><stop offset="0" stop-color="#051529"/><stop offset="1" stop-color="#03254a"/></linearGradient><linearGradient id="GradientFill_51" x1="-56.95" y1="-19.61" x2="108.5" y2="208.11" gradientUnits="userSpaceOnUse"><stop offset="0" stop-color="#061426"/><stop offset="1" stop-color="#001b36"/></linearGradient><linearGradient id="GradientFill_52" x1="22.24" y1="-2.72" x2="179.96" y2="185.25" gradientUnits="userSpaceOnUse"><stop offset="0" stop-color="#021a30"/><stop offset="1" stop-color="#0f3963"/></linearGradient><linearGradient id="GradientFill_53" x1="-195.48" y1="116.43" x2="104.82" y2="342.73" gradientUnits="userSpaceOnUse"><stop offset="0" stop-color="#070a14"/><stop offset="1" stop-color="#081221"/></linearGradient><linearGradient id="GradientFill_54" x1="-37.59" y1="328.75" x2="97.93" y2="416.75" gradientUnits="userSpaceOnUse"><stop offset="0" stop-color="#071326"/><stop offset="1" stop-color="#06162f"/></linearGradient><linearGradient id="GradientFill_55" x1="-105.89" y1="171.67" x2="114.9" y2="400.3" gradientUnits="userSpaceOnUse"><stop offset="0" stop-color="#001d40"/><stop offset="1" stop-color="#001939"/></linearGradient><linearGradient id="GradientFill_56" x1="-41.69" y1="121.94" x2="231.24" y2="327.61" gradientUnits="userSpaceOnUse"><stop offset="0" stop-color="#062b50"/><stop offset="1" stop-color="#0e426d"/></linearGradient><linearGradient id="GradientFill_57" x1="-31.95" y1="155.64" x2="203.87" y2="297.33" gradientUnits="userSpaceOnUse"><stop offset="0" stop-color="#0b2f57"/><stop offset="1" stop-color="#094978"/></linearGradient><linearGradient id="GradientFill_58" x1="70.8" y1="13.32" x2="204.72" y2="265.19" gradientUnits="userSpaceOnUse"><stop offset="0" stop-color="#103f6b"/><stop offset="1" stop-color="#054c7c"/></linearGradient><linearGradient id="GradientFill_59" x1="111.61" y1="229.06" x2="239.57" y2="315.37" gradientUnits="userSpaceOnUse"><stop offset="0" stop-color="#00548c"/><stop offset="1" stop-color="#0065a6"/></linearGradient><linearGradient id="GradientFill_60" x1="110.28" y1="80.17" x2="269.33" y2="250.74" gradientUnits="userSpaceOnUse"><stop offset="0" stop-color="#005385"/><stop offset="1" stop-color="#132a5d"/></linearGradient><linearGradient id="GradientFill_61" x1="-1407.7" y1="-1308.06" x2="1468.92" y2="1374.43" gradientUnits="userSpaceOnUse"><stop offset="0" stop-color="#0074b2"/><stop offset="1" stop-color="#173063"/></linearGradient><linearGradient id="GradientFill_62" x1="44.53" y1="281.07" x2="257.02" y2="573.54" gradientUnits="userSpaceOnUse"><stop offset="0" stop-color="#0f335e"/><stop offset="1" stop-color="#0e325b"/></linearGradient><linearGradient id="GradientFill_63" x1="55.04" y1="270.41" x2="192.28" y2="412.53" gradientUnits="userSpaceOnUse"><stop offset="0" stop-color="#153c6b"/><stop offset="1" stop-color="#094978"/></linearGradient><linearGradient id="GradientFill_6-2" x1="112.92" y1="247.95" x2="270.22" y2="384.69" xlink:href="#GradientFill_6"/><linearGradient id="GradientFill_64" x1="-85.57" y1="272.47" x2="70.39" y2="503.69" gradientUnits="userSpaceOnUse"><stop offset="0" stop-color="#0a0e1f"/><stop offset="1" stop-color="#0b0f1b"/></linearGradient><linearGradient id="GradientFill_65" x1="-12.1" y1="367.4" x2="104.42" y2="522.03" gradientUnits="userSpaceOnUse"><stop offset="0" stop-color="#081221"/><stop offset="1" stop-color="#090f1c"/></linearGradient><linearGradient id="GradientFill_66" x1="-118.43" y1="268.01" x2="84.31" y2="493.18" gradientUnits="userSpaceOnUse"><stop offset="0" stop-color="#070812"/><stop offset="1" stop-color="#0a0b17"/></linearGradient><linearGradient id="GradientFill_11-2" x1="17.34" y1="261.67" x2="262.22" y2="506.55" xlink:href="#GradientFill_11"/><linearGradient id="GradientFill_4-3" x1="455.87" y1="280.54" x2="616" y2="485.49" xlink:href="#GradientFill_4"/><linearGradient id="GradientFill_67" x1="437.07" y1="330.63" x2="672.44" y2="495.43" gradientUnits="userSpaceOnUse"><stop offset="0" stop-color="#00609d"/><stop offset="1" stop-color="#002348"/></linearGradient><linearGradient id="GradientFill_68" x1="521.78" y1="297.57" x2="764.18" y2="473.68" gradientUnits="userSpaceOnUse"><stop offset="0" stop-color="#001a35"/><stop offset="1" stop-color="#090f1c"/></linearGradient><linearGradient id="GradientFill_69" x1="560.29" y1="376.84" x2="829.09" y2="610.51" gradientUnits="userSpaceOnUse"><stop offset="0" stop-color="#123f6e"/><stop offset="1" stop-color="#102f5b"/></linearGradient><linearGradient id="GradientFill_70" x1="542.46" y1="294.88" x2="694.37" y2="528.79" gradientUnits="userSpaceOnUse"><stop offset="0" stop-color="#070b15"/><stop offset="1" stop-color="#041634"/></linearGradient><linearGradient id="GradientFill_8-3" x1="193.61" y1="168.79" x2="363.83" y2="345.06" xlink:href="#GradientFill_8"/><linearGradient id="GradientFill_5-2" x1="219.16" y1="17.19" x2="464.92" y2="331.76" xlink:href="#GradientFill_5"/><linearGradient id="GradientFill_71" x1="217.52" y1="-53.52" x2="552.89" y2="443.69" gradientUnits="userSpaceOnUse"><stop offset="0" stop-color="#0069a6"/><stop offset="1" stop-color="#133d6b"/></linearGradient><linearGradient id="GradientFill_72" x1="322.36" y1="136.79" x2="489.53" y2="303.96" gradientUnits="userSpaceOnUse"><stop offset="0" stop-color="#005e98"/><stop offset="1" stop-color="#103862"/></linearGradient><linearGradient id="GradientFill_47-2" x1="391.12" y1="322.19" x2="522.57" y2="490.43" xlink:href="#GradientFill_47"/><linearGradient id="GradientFill_73" x1="314.25" y1="123.73" x2="535.91" y2="523.62" gradientUnits="userSpaceOnUse"><stop offset="0" stop-color="#005080"/><stop offset="1" stop-color="#0064a3"/></linearGradient><linearGradient id="GradientFill_5-3" x1="289.66" y1="362.51" x2="473.94" y2="468.91" xlink:href="#GradientFill_5"/><linearGradient id="GradientFill_6-3" x1="70.16" y1="213.8" x2="525.84" y2="624.1" xlink:href="#GradientFill_6"/><linearGradient id="GradientFill_3-3" x1="121.04" y1="278.02" x2="397.64" y2="450.86" xlink:href="#GradientFill_3"/><linearGradient id="GradientFill_7-3" x1="131" y1="222.95" x2="388.04" y2="489.12" xlink:href="#GradientFill_7"/><linearGradient id="GradientFill_59-2" x1="231.82" y1="212.74" x2="382.9" y2="358.64" xlink:href="#GradientFill_59"/><linearGradient id="GradientFill_8-4" x1="305.52" y1="305.16" x2="422.67" y2="508.08" xlink:href="#GradientFill_8"/><linearGradient id="GradientFill_47-3" x1="320.26" y1="256.25" x2="485.9" y2="376.59" xlink:href="#GradientFill_47"/><linearGradient id="GradientFill_47-4" x1="234.9" y1="143.06" x2="593.38" y2="514.28" xlink:href="#GradientFill_47"/></defs><g id="Layer_2" data-name="Layer 2"><g id="Layer_1-2" data-name="Layer 1"><rect class="cls-1" x="240.36" y="417.16" width="130.34" height="81.67" rx="9.55"/><path class="cls-2" d="M333.73,498.82l6.69-23.28L240.36,478.2v11.08a9.55,9.55,0,0,0,9.55,9.54Z"/><polygon class="cls-3" points="348.94 498.82 340.42 475.54 333.73 498.82 348.94 498.82"/><path class="cls-4" d="M370.7,473.1l-30.28,2.44,8.52,23.28h12.21a9.55,9.55,0,0,0,9.55-9.54Z"/><polygon class="cls-5" points="370.7 473.11 340.42 475.54 370.7 447.47 370.7 473.11"/><path class="cls-6" d="M240.36,450.87l31.32-33.71H249.91a9.55,9.55,0,0,0-9.55,9.54Z"/><polygon class="cls-7" points="240.36 478.2 340.42 475.54 338.1 417.16 271.68 417.16 240.36 450.87 240.36 478.2"/><path class="cls-8" d="M340.42,475.54l30.28-28.07V426.7a9.55,9.55,0,0,0-9.55-9.54h-23Z"/><path class="cls-9" d="M157.77,479.73a9.55,9.55,0,1,0,0,19.09H453.29a9.55,9.55,0,0,0,0-19.09Z"/><path class="cls-10" d="M448.11,479.73,437.5,498.82h15.79a9.55,9.55,0,0,0,0-19.09Z"/><path class="cls-11" d="M203.62,498.82l10.26-19.09H209.6l-61.29,10.79a9.54,9.54,0,0,0,9.46,8.3Z"/><path class="cls-12" d="M209.6,479.73l-61.29,10.79a8.52,8.52,0,0,1-.09-1.24,9.55,9.55,0,0,1,9.55-9.55Z"/><polygon class="cls-13" points="217.87 498.82 214.47 479.73 213.88 479.73 203.62 498.82 217.87 498.82"/><polygon class="cls-14" points="241.56 498.82 215.46 479.73 214.47 479.73 217.87 498.82 241.56 498.82"/><polygon class="cls-15" points="215.46 479.73 241.56 498.82 333.73 498.82 339.21 479.73 215.46 479.73"/><polygon class="cls-16" points="348.94 498.82 341.95 479.73 339.21 479.73 333.73 498.82 348.94 498.82"/><polygon class="cls-17" points="437.5 498.82 448.11 479.73 341.95 479.73 348.94 498.82 437.5 498.82"/><path class="cls-18" d="M611.06,426.7V9.55A9.55,9.55,0,0,0,601.51,0H9.55A9.56,9.56,0,0,0,0,9.55V426.7a9.55,9.55,0,0,0,9.55,9.55h592a9.54,9.54,0,0,0,9.55-9.55ZM360.76,118.93l118.39,66.73V213L360.76,280.54V251.38l93.76-51.89-93.76-51.44V118.93Zm-96.81,0v29.12l-93.88,51.44L264,251.38v29.16L145.56,213V185.66Z"/><polygon class="cls-19" points="512.74 428.46 532.29 436.25 513.91 436.25 512.74 428.46"/><polygon class="cls-20" points="38.64 247.73 122.7 278.83 83.19 361.21 38.64 247.73"/><path class="cls-21" d="M595.68,0l14.89,6.53A9.55,9.55,0,0,0,601.51,0Z"/><polygon class="cls-22" points="160.26 0 163.89 92.22 247.11 14.88 202.88 0 160.26 0"/><polygon class="cls-23" points="247.38 0 247.11 14.88 202.88 0 247.38 0"/><path class="cls-24" d="M163.89,92.22l54,52.66,39.55-22.29L247.11,14.88,163.89,92.22Zm72.67,70.84,27.36,26.67-3.81-39.58Z"/><polygon class="cls-25" points="260.43 0 247.11 14.88 247.38 0 260.43 0"/><polygon class="cls-26" points="512.74 428.46 548.05 323.39 482.48 372.98 512.74 428.46"/><polygon class="cls-27" points="482.48 372.98 548.05 323.39 465.66 280.52 482.48 372.98"/><polygon class="cls-28" points="465.66 280.52 500.13 177.12 607.73 267.91 465.66 280.52"/><polygon class="cls-29" points="465.66 280.52 548.05 323.39 607.73 267.91 465.66 280.52"/><path class="cls-30" d="M465.66,280.52l34.47-103.4-55.48-14.29.67,3.76,33.83,19.07V213L456,226.22l9.69,54.3Zm-14.83-83,3.69,2-3,1.67Z"/><polygon class="cls-31" points="381.61 109.87 444.65 162.83 449.69 63.64 381.61 109.87"/><polygon class="cls-32" points="449.69 63.64 522.78 0 387.49 0 449.69 63.64"/><polygon class="cls-33" points="36.12 422.58 83.19 361.21 89.56 436.25 46.52 436.25 36.12 422.58"/><polygon class="cls-34" points="482.48 372.98 512.74 428.46 500.97 436.25 464.24 436.25 482.48 372.98"/><polygon class="cls-35" points="512.74 428.46 513.91 436.25 500.97 436.25 512.74 428.46"/><polygon class="cls-36" points="0 171.16 38.64 247.73 0 264.58 0 171.16"/><polygon class="cls-37" points="110.4 0 42.84 19.93 57.95 0 110.4 0"/><polygon class="cls-38" points="160.26 0 163.89 92.22 42.84 19.93 110.4 0 160.26 0"/><polygon class="cls-39" points="0 135.6 42.84 19.93 0 31.67 0 135.6"/><path class="cls-40" d="M23.33,0,42.84,19.93,0,31.67V9.55A9.56,9.56,0,0,1,9.55,0Z"/><polygon class="cls-41" points="57.95 0 42.84 19.93 23.33 0 57.95 0"/><polygon class="cls-42" points="500.13 177.12 607.73 267.91 611.06 204.03 611.06 171.33 500.13 177.12"/><polygon class="cls-43" points="607.73 267.91 611.06 266.74 611.06 204.03 607.73 267.91"/><polygon class="cls-44" points="548.05 323.39 607.73 267.91 611.06 270.17 611.06 316.91 548.05 323.39"/><polygon class="cls-45" points="607.73 267.91 611.06 266.74 611.06 270.17 607.73 267.91"/><polygon class="cls-46" points="444.65 162.83 449.69 63.64 540.48 97.26 444.65 162.83"/><polygon class="cls-47" points="444.65 162.83 500.13 177.12 540.48 97.26 444.65 162.83"/><polygon class="cls-48" points="449.69 63.64 522.78 0 546 0 540.48 97.26 449.69 63.64"/><polygon class="cls-49" points="500.13 177.12 611.06 171.33 611.06 169.49 540.48 97.26 500.13 177.12"/><path class="cls-50" d="M595.68,0l14.89,6.53a9.42,9.42,0,0,1,.49,3V44.62L540.48,97.26,546,0Z"/><polygon class="cls-51" points="611.06 44.62 540.48 97.26 611.06 169.49 611.06 44.62"/><polygon class="cls-52" points="247.11 14.88 257.46 122.59 263.95 118.94 263.95 148.04 260.11 150.15 263.92 189.73 330.33 63.64 247.11 14.88"/><polygon class="cls-53" points="247.11 14.88 260.43 0 324.5 0 330.33 63.64 247.11 14.88"/><polygon class="cls-54" points="263.92 189.73 360.76 124.02 360.76 118.94 364.85 121.24 381.61 109.87 330.33 63.64 263.92 189.73"/><polygon class="cls-55" points="369.66 0 330.33 63.64 324.5 0 369.66 0"/><polygon class="cls-56" points="387.49 0 449.69 63.64 330.33 63.64 369.66 0 387.49 0"/><polygon class="cls-57" points="381.61 109.87 449.69 63.64 330.33 63.64 381.61 109.87"/><polygon class="cls-58" points="0 171.16 38.64 247.73 99.16 162.83 0 156.58 0 171.16"/><polygon class="cls-59" points="0 135.6 42.84 19.93 99.16 162.83 0 156.58 0 135.6"/><polygon class="cls-60" points="42.84 19.93 163.89 92.22 99.16 162.83 42.84 19.93"/><polygon class="cls-61" points="0 264.58 38.64 247.73 0 308.87 0 264.58"/><polygon class="cls-62" points="36.12 422.58 83.19 361.21 0 354.91 0 383.14 36.12 422.58"/><polygon class="cls-63" points="38.64 247.73 83.19 361.21 0 354.91 0 308.87 38.64 247.73"/><polygon class="cls-64" points="38.64 247.73 99.16 162.83 145.56 202.8 145.56 212.61 38.64 247.73"/><polygon class="cls-65" points="38.64 247.73 122.7 278.83 151.01 216.1 145.56 212.99 145.56 212.61 38.64 247.73"/><polygon class="cls-66" points="99.16 162.83 163.89 92.22 156.4 179.54 145.56 185.66 145.56 202.8 99.16 162.83"/><polygon class="cls-67" points="122.7 278.83 244.59 291.44 177.57 231.25 151.01 216.1 122.7 278.83"/><path class="cls-68" d="M163.89,92.22l54,52.66L156.4,179.54l7.49-87.32Zm72.67,70.84-66.49,36.43,10.1,5.58,83.75-15.34Z"/><path class="cls-69" d="M244.59,291.44l3.76-19.8-70.78-40.39,67,60.19Zm8.73-45.94-73.15-40.43,83.75-15.34Z"/><polygon class="cls-70" points="83.19 361.21 89.56 436.25 144.07 436.25 185.74 382.23 83.19 361.21"/><polygon class="cls-71" points="83.19 361.21 122.7 278.83 185.74 382.23 83.19 361.21"/><polygon class="cls-72" points="122.7 278.83 244.59 291.44 185.74 382.23 122.7 278.83"/><path class="cls-73" d="M0,383.14l36.12,39.44L17.68,436.25H9.55A9.55,9.55,0,0,1,0,426.7Z"/><polygon class="cls-74" points="36.12 422.58 46.52 436.25 33.04 436.25 36.12 422.58"/><polygon class="cls-75" points="17.68 436.25 36.12 422.58 33.04 436.25 17.68 436.25"/><polygon class="cls-76" points="144.07 436.25 185.74 382.23 201.72 436.25 144.07 436.25"/><polygon class="cls-77" points="512.74 428.46 548.05 323.39 597.64 398.2 512.74 428.46"/><path class="cls-78" d="M512.74,428.46l19.56,7.79h69.21a9.45,9.45,0,0,0,5.52-1.76l-9.39-36.29Z"/><polygon class="cls-79" points="548.05 323.39 611.06 316.91 611.06 382.16 597.64 398.2 548.05 323.39"/><path class="cls-80" d="M611.06,404l-13.42-5.75L607,434.49a9.51,9.51,0,0,0,4-7.79Z"/><polygon class="cls-81" points="611.06 403.95 597.64 398.2 611.06 382.16 611.06 403.95"/><polygon class="cls-82" points="244.59 291.44 248.35 271.64 263.95 280.54 263.95 251.38 253.32 245.5 263.92 189.73 344.62 255.3 244.59 291.44"/><path class="cls-83" d="M263.92,189.73,360.76,124v24l9.77,5.36L344.62,255.3l-80.7-65.57Zm100.93-68.49L377,128.08l4.63-18.21Z"/><path class="cls-84" d="M381.61,109.87l63,53-2.27,2.1L377,128.08l4.63-18.21Zm41.83,72.57-52.91-29L344.62,255.3Z"/><path class="cls-85" d="M444.65,162.83l.67,3.76-2.94-1.66,2.27-2.1Zm6.18,34.64.66,3.69-90.73,50.22v7.28l-16.14-3.36,78.82-72.86,27.39,15ZM456,226.22l-67.12,38.29,76.81,16Z"/><polygon class="cls-86" points="464.24 436.25 482.48 372.98 409.34 411.65 430.16 436.25 464.24 436.25"/><polygon class="cls-87" points="465.66 280.52 482.48 372.98 409.34 411.65 465.66 280.52"/><polygon class="cls-88" points="409.34 411.65 430.16 436.25 382.8 436.25 409.34 411.65"/><polygon class="cls-89" points="185.74 382.23 201.72 436.25 253.94 436.25 335.37 348.6 185.74 382.23"/><polygon class="cls-90" points="185.74 382.23 244.59 291.44 335.37 348.6 185.74 382.23"/><polygon class="cls-91" points="338.85 436.25 335.37 348.6 253.94 436.25 338.85 436.25"/><polygon class="cls-92" points="244.59 291.44 344.62 255.3 335.37 348.6 244.59 291.44"/><polygon class="cls-93" points="382.8 436.25 409.34 411.65 335.37 348.6 338.85 436.25 382.8 436.25"/><polygon class="cls-94" points="344.62 255.3 360.76 258.66 360.76 280.54 388.85 264.51 465.66 280.52 335.37 348.6 344.62 255.3"/><polygon class="cls-95" points="409.34 411.65 465.66 280.52 335.37 348.6 409.34 411.65"/></g></g></svg>