<svg xmlns="http://www.w3.org/2000/svg" width="71.559" height="73.671" viewBox="0 0 71.559 73.671">
  <path id="Icon_awesome-github" data-name="Icon awesome-github" d="M23.935,59.882c0,.3-.332.548-.75.548-.476.046-.808-.2-.808-.548,0-.3.332-.548.75-.548C23.56,59.288,23.935,59.532,23.935,59.882ZM19.448,59.2c-.1.3.188.655.62.746a.661.661,0,0,0,.894-.3c.087-.3-.188-.655-.62-.792A.724.724,0,0,0,19.448,59.2Zm6.377-.259c-.418.107-.707.4-.664.746.043.3.418.5.851.4s.707-.4.664-.7C26.633,59.09,26.243,58.892,25.825,58.938ZM35.318.563C15.307.563,0,16.6,0,37.733,0,54.627,10.07,69.083,24.454,74.171a1.86,1.86,0,0,0,2.5-1.843c0-.944-.043-6.154-.043-9.353,0,0-10.1,2.285-12.22-4.54,0,0-1.645-4.433-4.011-5.576,0,0-3.3-2.392.231-2.346a7.556,7.556,0,0,1,5.569,3.93c3.16,5.88,8.454,4.189,10.517,3.184A8.655,8.655,0,0,1,29.3,52.494c-8.065-.944-16.2-2.178-16.2-16.833a11.882,11.882,0,0,1,3.4-8.973,15.143,15.143,0,0,1,.375-10.344c3.015-.99,9.955,4.113,9.955,4.113a32.346,32.346,0,0,1,18.121,0s6.94-5.118,9.955-4.113a15.136,15.136,0,0,1,.375,10.344c2.308,2.7,3.722,4.8,3.722,8.973,0,14.7-8.5,15.873-16.562,16.833,1.327,1.2,2.453,3.489,2.453,7.068,0,5.134-.043,11.486-.043,12.735a1.865,1.865,0,0,0,2.5,1.843c14.427-5.058,24.209-19.514,24.209-36.408C71.559,16.6,55.328.563,35.318.563ZM14.023,53.1c-.188.152-.144.5.1.792.231.244.563.35.75.152.188-.152.144-.5-.1-.792C14.543,53.012,14.211,52.905,14.023,53.1Zm-1.558-1.234c-.1.2.043.442.332.594a.416.416,0,0,0,.62-.107c.1-.2-.043-.442-.332-.594C12.8,51.671,12.566,51.717,12.465,51.869Zm4.674,5.423c-.231.2-.144.655.188.944.332.35.75.4.938.152.188-.2.1-.655-.188-.944C17.76,57.094,17.327,57.049,17.14,57.293Zm-1.645-2.239c-.231.152-.231.548,0,.9s.62.5.808.35a.723.723,0,0,0,0-.944C16.1,55.007,15.726,54.855,15.495,55.053Z" transform="translate(0 -0.563)" fill="rgba(244,244,244,0.62)"/>
</svg>
