<svg xmlns="http://www.w3.org/2000/svg" width="111.071" height="119.221" viewBox="0 0 111.071 119.221">
  <path id="Icon_feather-github" data-name="Icon feather-github" d="M41.68,101.071C14.051,109.36,14.051,87.257,3,84.494m77.36,33.154V96.264a18.622,18.622,0,0,0-5.194-14.422c17.351-1.934,35.586-8.51,35.586-38.68a30.057,30.057,0,0,0-8.285-20.718,28.015,28.015,0,0,0-.5-20.836S95.446-.326,80.36,9.786a73.935,73.935,0,0,0-38.68,0C26.595-.326,20.075,1.608,20.075,1.608a28.015,28.015,0,0,0-.5,20.832,30.06,30.06,0,0,0-8.289,20.887c0,29.95,18.235,36.525,35.586,38.68A18.622,18.622,0,0,0,41.68,96.264v21.385" transform="translate(-1.181 0.072)" fill="rgba(244,244,244,0)" stroke="#fff" stroke-linecap="round" stroke-linejoin="round" stroke-width="3"/>
</svg>
