<svg xmlns="http://www.w3.org/2000/svg" width="64.285" height="68.27" viewBox="0 0 64.285 68.27">
  <path id="Icon_awesome-instagram" data-name="Icon awesome-instagram" d="M32.144,18.869c-9.121,0-16.478,7.815-16.478,17.5s7.357,17.5,16.478,17.5,16.478-7.815,16.478-17.5S41.265,18.869,32.144,18.869Zm0,28.883c-5.894,0-10.713-5.1-10.713-11.38s4.8-11.38,10.713-11.38,10.713,5.1,10.713,11.38S38.039,47.752,32.144,47.752Zm21-29.6a3.85,3.85,0,1,1-7.687,0,3.85,3.85,0,1,1,7.687,0ZM64.054,22.3c-.244-5.469-1.42-10.313-5.192-14.3S50.544,2.752,45.4,2.478c-5.306-.32-21.211-.32-26.517,0-5.134.259-9.695,1.508-13.467,5.5S.479,16.812.221,22.281c-.3,5.636-.3,22.531,0,28.167.244,5.469,1.42,10.313,5.192,14.3s8.318,5.24,13.467,5.515c5.306.32,21.211.32,26.517,0,5.149-.259,9.709-1.508,13.467-5.515,3.757-3.991,4.933-8.836,5.192-14.3.3-5.636.3-22.515,0-28.152ZM57.2,56.5a11.206,11.206,0,0,1-6.109,6.49c-4.231,1.782-14.27,1.371-18.945,1.371s-14.729.4-18.945-1.371A11.205,11.205,0,0,1,7.09,56.5C5.412,52,5.8,41.339,5.8,36.372S5.427,20.728,7.09,16.249A11.206,11.206,0,0,1,13.2,9.759c4.231-1.782,14.27-1.371,18.945-1.371s14.729-.4,18.945,1.371a11.205,11.205,0,0,1,6.109,6.49c1.678,4.494,1.291,15.157,1.291,20.124S58.877,52.017,57.2,56.5Z" transform="translate(0.005 -2.238)" fill="rgba(244,244,244,0.62)"/>
</svg>
