<svg xmlns="http://www.w3.org/2000/svg" width="64.247" height="68.247" viewBox="0 0 64.247 68.247">
  <path id="Icon_awesome-linkedin" data-name="Icon awesome-linkedin" d="M59.658,2.25H4.575A4.762,4.762,0,0,0,0,7.17V65.576A4.762,4.762,0,0,0,4.575,70.5H59.658a4.774,4.774,0,0,0,4.589-4.92V7.17A4.774,4.774,0,0,0,59.658,2.25Zm-40.24,58.5H9.9V28.178h9.537V60.747ZM14.656,23.729a5.7,5.7,0,0,1-5.521-5.865A5.7,5.7,0,0,1,14.656,12a5.713,5.713,0,0,1,5.521,5.865,5.694,5.694,0,0,1-5.521,5.865ZM55.112,60.747H45.59V44.9c0-3.778-.072-8.637-4.948-8.637-4.962,0-5.722,4.113-5.722,8.363V60.747H25.4V28.178h9.135v4.448h.129a9.939,9.939,0,0,1,9.02-5.256c9.637,0,11.43,6.748,11.43,15.523Z" transform="translate(0 -2.25)" fill="rgba(244,244,244,0.62)"/>
</svg>
